<svg xmlns="http://www.w3.org/2000/svg" xmlns:xlink="http://www.w3.org/1999/xlink" width="1285" zoomAndPan="magnify" viewBox="0 0 963.75 1775.999925" height="2368" preserveAspectRatio="xMidYMid meet" version="1.0"><defs><clipPath id="807f325eaa"><path d="M 0.261719 0.40625 L 963.5 0.40625 L 963.5 1738 L 0.261719 1738 Z M 0.261719 0.40625 " clip-rule="nonzero"/></clipPath><clipPath id="70a13f5d40"><path d="M 90 0.40625 L 963.5 0.40625 L 963.5 1283 L 90 1283 Z M 90 0.40625 " clip-rule="nonzero"/></clipPath><clipPath id="511a4b78d0"><path d="M 112 0.40625 L 684 0.40625 L 684 995 L 112 995 Z M 112 0.40625 " clip-rule="nonzero"/></clipPath></defs><g clip-path="url(#807f325eaa)"><path fill="#153b88" d="M 548.859375 1.15625 C 551.152344 2.222656 553.351562 3.4375 555.558594 4.671875 C 556.214844 5.035156 556.867188 5.398438 557.542969 5.773438 C 577.339844 16.921875 596.128906 30.152344 613.34375 44.976562 C 615.515625 46.832031 617.722656 48.625 619.949219 50.410156 C 622.894531 52.804688 625.617188 55.300781 628.230469 58.054688 C 629.644531 59.453125 631.09375 60.742188 632.601562 62.042969 C 636.03125 65.019531 639.242188 68.1875 642.441406 71.40625 C 643.003906 71.964844 643.566406 72.523438 644.144531 73.097656 C 644.6875 73.640625 645.226562 74.183594 645.785156 74.742188 C 646.269531 75.226562 646.753906 75.710938 647.25 76.210938 C 647.691406 76.679688 648.128906 77.152344 648.582031 77.636719 C 649.226562 78.300781 649.226562 78.300781 649.882812 78.980469 C 651.269531 81.40625 650.953125 83.285156 650.792969 86.054688 C 650.097656 105 654.484375 119.304688 661.882812 136.582031 C 664.414062 142.542969 666.648438 148.613281 668.902344 154.679688 C 670.210938 158.191406 671.539062 161.695312 672.863281 165.199219 C 673.136719 165.925781 673.410156 166.652344 673.691406 167.398438 C 677.308594 176.972656 680.941406 186.539062 684.574219 196.105469 C 689.761719 209.78125 694.941406 223.457031 700.105469 237.140625 C 704.535156 248.875 708.988281 260.597656 713.445312 272.316406 C 718.402344 285.355469 723.335938 298.40625 728.253906 311.457031 C 732.796875 323.5 737.355469 335.539062 741.933594 347.566406 C 746.828125 360.429688 751.699219 373.304688 756.554688 386.183594 C 761.457031 399.1875 766.375 412.183594 771.316406 425.171875 C 775.617188 436.484375 779.914062 447.792969 784.1875 459.113281 C 784.988281 461.230469 785.792969 463.34375 786.59375 465.457031 C 788.976562 471.734375 791.324219 478.015625 793.550781 484.351562 C 797.210938 494.714844 800.636719 503.691406 808.289062 511.773438 C 809.53125 513.339844 810.746094 514.914062 811.945312 516.507812 C 812.558594 517.308594 813.175781 518.113281 813.789062 518.914062 C 816.503906 522.453125 819.210938 525.996094 821.917969 529.539062 C 825.613281 534.375 829.320312 539.195312 833.035156 544.015625 C 837.589844 549.933594 842.132812 555.855469 846.667969 561.789062 C 849.117188 564.992188 851.570312 568.191406 854.027344 571.382812 C 856.910156 575.128906 859.78125 578.878906 862.652344 582.632812 C 866.765625 588.015625 870.890625 593.386719 875.023438 598.753906 C 877.171875 601.542969 879.324219 604.335938 881.46875 607.132812 C 882.214844 608.101562 882.957031 609.070312 883.703125 610.035156 C 884.964844 611.679688 886.226562 613.324219 887.488281 614.96875 C 887.875 615.46875 888.257812 615.96875 888.65625 616.484375 C 889.417969 617.480469 890.171875 618.480469 890.917969 619.488281 C 891.839844 620.683594 892.800781 621.851562 893.796875 622.988281 C 898.519531 628.691406 899.105469 633.078125 898.984375 640.34375 C 898.988281 641.421875 898.996094 642.5 899.003906 643.582031 C 899.023438 645.910156 899.023438 648.238281 899.015625 650.566406 C 899.007812 654.300781 899.066406 658.03125 899.140625 661.765625 C 899.167969 663.070312 899.195312 664.375 899.21875 665.679688 C 899.230469 666.335938 899.246094 666.996094 899.257812 667.675781 C 899.324219 671.140625 899.375 674.605469 899.425781 678.070312 C 899.441406 679.136719 899.441406 679.136719 899.457031 680.226562 C 899.480469 681.691406 899.5 683.15625 899.523438 684.621094 C 899.578125 688.457031 899.640625 692.292969 899.699219 696.128906 C 899.875 707.46875 900.042969 718.8125 900.214844 730.15625 C 900.347656 739.007812 900.484375 747.863281 900.621094 756.714844 C 900.679688 760.503906 900.738281 764.296875 900.792969 768.085938 C 900.921875 776.78125 901.066406 785.476562 901.234375 794.175781 C 901.265625 795.917969 901.292969 797.660156 901.324219 799.402344 C 901.375 802.519531 901.445312 805.636719 901.519531 808.757812 C 901.535156 809.644531 901.546875 810.53125 901.558594 811.445312 C 901.78125 819.3125 904.050781 825.328125 907.734375 832.175781 C 908.320312 833.34375 908.898438 834.511719 909.476562 835.683594 C 910.648438 838.054688 911.839844 840.414062 913.042969 842.769531 C 915.4375 847.484375 917.597656 852.304688 919.75 857.132812 C 920.890625 859.679688 922.046875 862.21875 923.203125 864.757812 C 923.433594 865.261719 923.664062 865.765625 923.898438 866.285156 C 926.574219 872.183594 929.269531 878.070312 931.960938 883.960938 C 932.210938 884.503906 932.460938 885.046875 932.714844 885.609375 C 933.976562 888.363281 935.234375 891.117188 936.496094 893.871094 C 938 897.160156 939.503906 900.449219 941.007812 903.742188 C 941.257812 904.285156 941.503906 904.824219 941.757812 905.382812 C 943 908.097656 944.242188 910.8125 945.480469 913.527344 C 947.828125 918.65625 950.171875 923.789062 952.523438 928.914062 C 953.632812 931.339844 954.746094 933.765625 955.855469 936.191406 C 956.386719 937.351562 956.917969 938.507812 957.445312 939.664062 C 958.183594 941.269531 958.917969 942.875 959.652344 944.476562 C 959.867188 944.949219 960.085938 945.417969 960.308594 945.90625 C 960.878906 947.15625 961.441406 948.40625 962 949.660156 C 962.398438 950.539062 962.398438 950.539062 962.808594 951.4375 C 963.554688 953.5625 963.683594 955.152344 963.679688 957.398438 C 963.679688 958.1875 963.679688 958.980469 963.679688 959.796875 C 963.667969 960.660156 963.660156 961.523438 963.648438 962.414062 C 963.644531 963.335938 963.640625 964.261719 963.632812 965.210938 C 963.53125 976.851562 963.101562 988.480469 962.671875 1000.113281 C 962.570312 1002.78125 962.476562 1005.453125 962.378906 1008.121094 C 961.476562 1033.390625 960.507812 1058.660156 959.527344 1083.925781 C 959.402344 1087.199219 959.273438 1090.472656 959.148438 1093.746094 C 959.117188 1094.558594 959.085938 1095.371094 959.050781 1096.210938 C 958.542969 1109.433594 958.0625 1122.65625 957.59375 1135.878906 C 957.109375 1149.496094 956.597656 1163.109375 956.054688 1176.726562 C 955.753906 1184.355469 955.464844 1191.984375 955.207031 1199.613281 C 954.992188 1206.097656 954.746094 1212.582031 954.46875 1219.0625 C 954.328125 1222.367188 954.199219 1225.667969 954.105469 1228.972656 C 954.019531 1232.003906 953.898438 1235.03125 953.746094 1238.058594 C 953.699219 1239.148438 953.664062 1240.238281 953.640625 1241.332031 C 953.535156 1246.71875 953.078125 1250.707031 949.324219 1254.664062 C 947.613281 1256.292969 945.8125 1257.808594 944.003906 1259.332031 C 943.167969 1260.246094 942.351562 1261.179688 941.566406 1262.144531 C 938.925781 1265.25 936.027344 1268.085938 933.132812 1270.953125 C 928.878906 1275.140625 928.878906 1275.140625 924.886719 1279.574219 C 921.855469 1283.171875 918.449219 1286.402344 915.113281 1289.707031 C 912.789062 1292.015625 910.5 1294.3125 908.390625 1296.820312 C 905.363281 1300.417969 901.953125 1303.648438 898.617188 1306.953125 C 896.292969 1309.261719 894.003906 1311.558594 891.894531 1314.066406 C 888.867188 1317.664062 885.460938 1320.894531 882.121094 1324.199219 C 879.800781 1326.507812 877.511719 1328.804688 875.398438 1331.3125 C 872.402344 1334.871094 869.039062 1338.082031 865.71875 1341.339844 C 863.359375 1343.664062 861.089844 1346.023438 858.925781 1348.535156 C 855.730469 1352.242188 852.242188 1355.628906 848.75 1359.054688 C 845.8125 1361.960938 843.039062 1364.945312 840.339844 1368.078125 C 838.144531 1370.554688 835.773438 1372.855469 833.410156 1375.175781 C 829.152344 1379.363281 829.152344 1379.363281 825.160156 1383.796875 C 822.132812 1387.394531 818.726562 1390.625 815.390625 1393.929688 C 813.066406 1396.238281 810.777344 1398.535156 808.664062 1401.042969 C 805.636719 1404.640625 802.230469 1407.871094 798.894531 1411.175781 C 796.570312 1413.484375 794.28125 1415.78125 792.167969 1418.289062 C 789.140625 1421.886719 785.734375 1425.117188 782.398438 1428.421875 C 780.074219 1430.730469 777.785156 1433.027344 775.671875 1435.535156 C 772.644531 1439.132812 769.238281 1442.363281 765.902344 1445.667969 C 763.578125 1447.976562 761.289062 1450.273438 759.179688 1452.78125 C 756.179688 1456.339844 752.820312 1459.550781 749.5 1462.808594 C 747.140625 1465.132812 744.871094 1467.492188 742.707031 1470.003906 C 739.507812 1473.710938 736.023438 1477.097656 732.53125 1480.523438 C 729.589844 1483.429688 726.820312 1486.414062 724.121094 1489.542969 C 721.921875 1492.023438 719.554688 1494.324219 717.1875 1496.644531 C 712.933594 1500.832031 712.933594 1500.832031 708.941406 1505.265625 C 705.914062 1508.863281 702.507812 1512.09375 699.171875 1515.398438 C 696.847656 1517.707031 694.558594 1520.003906 692.445312 1522.511719 C 689.417969 1526.109375 686.011719 1529.339844 682.675781 1532.644531 C 680.351562 1534.953125 678.0625 1537.25 675.949219 1539.757812 C 672.921875 1543.355469 669.515625 1546.585938 666.179688 1549.890625 C 663.855469 1552.199219 661.566406 1554.496094 659.453125 1557.003906 C 656.425781 1560.597656 653.019531 1563.832031 649.683594 1567.136719 C 647.359375 1569.445312 645.070312 1571.742188 642.957031 1574.25 C 639.960938 1577.808594 636.597656 1581.019531 633.28125 1584.273438 C 630.921875 1586.601562 628.648438 1588.960938 626.484375 1591.472656 C 623.289062 1595.179688 619.800781 1598.566406 616.3125 1601.992188 C 613.371094 1604.898438 610.597656 1607.882812 607.902344 1611.011719 C 605.703125 1613.492188 603.335938 1615.792969 600.96875 1618.113281 C 596.714844 1622.300781 596.714844 1622.300781 592.722656 1626.734375 C 589.695312 1630.332031 586.285156 1633.5625 582.949219 1636.867188 C 580.625 1639.175781 578.335938 1641.472656 576.226562 1643.980469 C 573.199219 1647.578125 569.792969 1650.808594 566.453125 1654.113281 C 564.132812 1656.421875 561.839844 1658.71875 559.730469 1661.226562 C 556.703125 1664.824219 553.296875 1668.054688 549.957031 1671.359375 C 547.636719 1673.667969 545.347656 1675.964844 543.234375 1678.472656 C 540.207031 1682.066406 536.800781 1685.300781 533.464844 1688.601562 C 531.140625 1690.914062 528.851562 1693.210938 526.738281 1695.71875 C 523.710938 1699.3125 520.304688 1702.542969 516.96875 1705.847656 C 514.644531 1708.160156 512.355469 1710.457031 510.242188 1712.964844 C 507.21875 1716.554688 503.820312 1719.78125 500.484375 1723.078125 C 497.636719 1725.910156 494.917969 1728.785156 492.339844 1731.863281 C 491.089844 1733.242188 489.78125 1734.421875 488.359375 1735.617188 C 487.890625 1736.011719 487.425781 1736.40625 486.941406 1736.8125 C 486.414062 1737.253906 486.414062 1737.253906 485.875 1737.707031 C 481.660156 1733.511719 477.449219 1729.3125 473.242188 1725.113281 C 471.285156 1723.164062 469.332031 1721.210938 467.375 1719.261719 C 465.480469 1717.378906 463.589844 1715.492188 461.699219 1713.605469 C 460.636719 1712.542969 459.570312 1711.484375 458.507812 1710.425781 C 457.847656 1709.765625 457.1875 1709.105469 456.507812 1708.425781 C 455.933594 1707.851562 455.359375 1707.28125 454.765625 1706.6875 C 453.246094 1705.09375 451.796875 1703.480469 450.355469 1701.8125 C 447.828125 1698.90625 445.175781 1696.164062 442.441406 1693.449219 C 441.707031 1692.71875 441.707031 1692.71875 440.957031 1691.96875 C 439.90625 1690.921875 438.851562 1689.871094 437.796875 1688.824219 C 436.125 1687.160156 434.453125 1685.496094 432.785156 1683.828125 C 429.238281 1680.292969 425.6875 1676.757812 422.140625 1673.222656 C 418.023438 1669.125 413.910156 1665.027344 409.796875 1660.925781 C 408.160156 1659.289062 406.519531 1657.660156 404.878906 1656.03125 C 403.867188 1655.019531 402.855469 1654.007812 401.839844 1652.996094 C 401.390625 1652.550781 400.941406 1652.105469 400.476562 1651.644531 C 397.761719 1648.929688 395.21875 1646.113281 392.703125 1643.207031 C 390.632812 1640.867188 388.425781 1638.667969 386.207031 1636.464844 C 385.472656 1635.734375 385.472656 1635.734375 384.722656 1634.984375 C 383.667969 1633.933594 382.617188 1632.886719 381.5625 1631.839844 C 379.886719 1630.175781 378.21875 1628.507812 376.546875 1626.84375 C 373.003906 1623.304688 369.453125 1619.773438 365.90625 1616.238281 C 361.789062 1612.140625 357.675781 1608.042969 353.5625 1603.9375 C 351.925781 1602.304688 350.285156 1600.675781 348.644531 1599.042969 C 347.632812 1598.035156 346.617188 1597.023438 345.605469 1596.011719 C 345.15625 1595.566406 344.707031 1595.121094 344.242188 1594.660156 C 341.523438 1591.945312 338.976562 1589.125 336.464844 1586.21875 C 334.414062 1583.902344 332.234375 1581.726562 330.039062 1579.550781 C 329.554688 1579.066406 329.074219 1578.585938 328.578125 1578.089844 C 327.539062 1577.058594 326.503906 1576.023438 325.464844 1574.992188 C 323.816406 1573.355469 322.171875 1571.714844 320.527344 1570.074219 C 317.035156 1566.589844 313.539062 1563.109375 310.042969 1559.628906 C 305.992188 1555.59375 301.9375 1551.554688 297.886719 1547.515625 C 296.277344 1545.90625 294.660156 1544.300781 293.046875 1542.695312 C 292.046875 1541.699219 291.046875 1540.703125 290.050781 1539.707031 C 289.609375 1539.269531 289.164062 1538.828125 288.707031 1538.378906 C 286.488281 1536.15625 284.359375 1533.890625 282.304688 1531.515625 C 279.8125 1528.632812 277.1875 1525.925781 274.484375 1523.246094 C 273.996094 1522.757812 273.503906 1522.269531 273 1521.765625 C 271.949219 1520.714844 270.894531 1519.664062 269.839844 1518.617188 C 268.167969 1516.953125 266.496094 1515.289062 264.828125 1513.621094 C 261.28125 1510.085938 257.734375 1506.550781 254.183594 1503.019531 C 250.066406 1498.917969 245.953125 1494.820312 241.84375 1490.71875 C 240.203125 1489.085938 238.566406 1487.453125 236.925781 1485.824219 C 235.910156 1484.8125 234.898438 1483.800781 233.882812 1482.789062 C 233.433594 1482.34375 232.984375 1481.898438 232.519531 1481.441406 C 229.804688 1478.722656 227.261719 1475.90625 224.75 1473 C 222.675781 1470.660156 220.46875 1468.460938 218.25 1466.261719 C 217.757812 1465.769531 217.269531 1465.28125 216.765625 1464.78125 C 215.710938 1463.730469 214.660156 1462.679688 213.605469 1461.632812 C 211.933594 1459.96875 210.261719 1458.304688 208.589844 1456.636719 C 205.046875 1453.101562 201.496094 1449.566406 197.949219 1446.03125 C 193.832031 1441.933594 189.71875 1437.835938 185.605469 1433.734375 C 183.96875 1432.101562 182.328125 1430.46875 180.6875 1428.839844 C 179.675781 1427.828125 178.660156 1426.816406 177.648438 1425.804688 C 177.199219 1425.359375 176.75 1424.914062 176.285156 1424.453125 C 173.570312 1421.738281 171.023438 1418.921875 168.511719 1416.015625 C 166.441406 1413.675781 164.234375 1411.476562 162.011719 1409.273438 C 161.523438 1408.785156 161.035156 1408.296875 160.53125 1407.792969 C 159.476562 1406.746094 158.421875 1405.695312 157.371094 1404.648438 C 155.695312 1402.984375 154.027344 1401.320312 152.355469 1399.652344 C 148.808594 1396.113281 145.261719 1392.582031 141.714844 1389.046875 C 137.597656 1384.949219 133.484375 1380.851562 129.371094 1376.746094 C 127.734375 1375.113281 126.09375 1373.484375 124.453125 1371.855469 C 123.441406 1370.84375 122.425781 1369.832031 121.414062 1368.820312 C 120.964844 1368.375 120.511719 1367.929688 120.050781 1367.46875 C 117.335938 1364.753906 114.789062 1361.933594 112.277344 1359.03125 C 110.203125 1356.6875 108 1354.492188 105.777344 1352.289062 C 105.289062 1351.800781 104.800781 1351.3125 104.292969 1350.808594 C 103.242188 1349.757812 102.1875 1348.710938 101.132812 1347.664062 C 99.460938 1346 97.789062 1344.332031 96.121094 1342.667969 C 92.574219 1339.128906 89.027344 1335.597656 85.476562 1332.0625 C 81.363281 1327.964844 77.246094 1323.863281 73.136719 1319.761719 C 71.5 1318.128906 69.859375 1316.5 68.21875 1314.867188 C 67.203125 1313.855469 66.191406 1312.847656 65.175781 1311.835938 C 64.503906 1311.167969 64.503906 1311.167969 63.816406 1310.484375 C 61.625 1308.292969 59.554688 1306.070312 57.570312 1303.6875 C 55.375 1301.164062 53.089844 1299.175781 50.394531 1297.207031 C 37.828125 1287.992188 28.527344 1278.054688 26.0625 1262.289062 C 24.820312 1252.578125 24.378906 1242.792969 24.023438 1233.015625 C 23.804688 1227.191406 23.441406 1221.375 23.066406 1215.554688 C 22.867188 1212.503906 22.675781 1209.457031 22.484375 1206.40625 C 22.445312 1205.792969 22.40625 1205.179688 22.367188 1204.546875 C 22.09375 1200.128906 21.84375 1195.707031 21.601562 1191.285156 C 20.605469 1172.925781 19.269531 1154.617188 17.703125 1136.300781 C 17.648438 1135.644531 17.589844 1134.984375 17.535156 1134.304688 C 17.019531 1128.285156 16.503906 1122.265625 15.980469 1116.246094 C 15.164062 1106.835938 14.371094 1097.421875 13.59375 1088.007812 C 13.539062 1087.34375 13.484375 1086.675781 13.425781 1085.988281 C 13.148438 1082.617188 12.871094 1079.246094 12.589844 1075.871094 C 12.089844 1069.800781 11.585938 1063.730469 11.085938 1057.660156 C 10.917969 1055.628906 10.75 1053.597656 10.578125 1051.566406 C 9.714844 1041.132812 8.847656 1030.699219 7.980469 1020.265625 C 7.007812 1008.621094 6.042969 996.976562 5.082031 985.328125 C 4.496094 978.253906 3.910156 971.183594 3.316406 964.109375 C 2.917969 959.328125 2.523438 954.546875 2.128906 949.761719 C 1.902344 947.019531 1.675781 944.277344 1.445312 941.539062 C -1.089844 911.445312 -1.089844 911.445312 3.75 904.203125 C 4.585938 902.851562 5.417969 901.492188 6.246094 900.136719 C 6.695312 899.417969 7.140625 898.703125 7.601562 897.964844 C 10.125 893.824219 12.433594 889.566406 14.761719 885.320312 C 15.273438 884.390625 15.785156 883.460938 16.292969 882.535156 C 36.035156 846.621094 54.65625 810.085938 71.339844 772.648438 C 71.949219 771.277344 72.5625 769.910156 73.175781 768.539062 C 85.820312 740.234375 97.148438 711.296875 107.222656 681.980469 C 107.417969 681.410156 107.617188 680.835938 107.820312 680.246094 C 128.960938 618.714844 143.15625 555.496094 156.457031 491.894531 C 170.871094 422.972656 170.871094 422.972656 177.824219 394.402344 C 178.511719 391.566406 179.191406 388.726562 179.867188 385.886719 C 181.101562 380.730469 182.355469 375.578125 183.625 370.433594 C 184.109375 368.460938 184.585938 366.488281 185.058594 364.515625 C 185.710938 361.789062 186.386719 359.070312 187.070312 356.355469 C 187.257812 355.550781 187.445312 354.75 187.640625 353.921875 C 189.011719 348.605469 191.019531 345.371094 194.949219 341.570312 C 195.667969 340.820312 196.386719 340.070312 197.101562 339.320312 C 197.789062 338.628906 198.476562 337.941406 199.1875 337.230469 C 199.566406 336.851562 199.941406 336.472656 200.332031 336.085938 C 201.121094 335.292969 201.914062 334.503906 202.703125 333.714844 C 203.898438 332.527344 205.085938 331.332031 206.277344 330.140625 C 207.054688 329.363281 207.832031 328.585938 208.605469 327.8125 C 209.640625 326.78125 209.640625 326.78125 210.695312 325.726562 C 212.363281 324.097656 214.097656 322.558594 215.863281 321.035156 C 218.902344 318.398438 221.742188 315.609375 224.566406 312.75 C 225.078125 312.234375 225.585938 311.722656 226.113281 311.195312 C 227.722656 309.574219 229.332031 307.953125 230.941406 306.328125 C 233.0625 304.1875 235.1875 302.046875 237.3125 299.90625 C 238.027344 299.1875 238.027344 299.1875 238.753906 298.449219 C 241.550781 295.636719 244.445312 292.996094 247.449219 290.402344 C 249.921875 288.207031 252.238281 285.859375 254.558594 283.507812 C 255.070312 282.992188 255.578125 282.480469 256.105469 281.953125 C 257.714844 280.332031 259.324219 278.710938 260.933594 277.085938 C 263.054688 274.945312 265.179688 272.804688 267.304688 270.664062 C 268.019531 269.945312 268.019531 269.945312 268.746094 269.207031 C 271.542969 266.394531 274.4375 263.75 277.441406 261.160156 C 279.914062 258.964844 282.230469 256.617188 284.550781 254.265625 C 285.0625 253.75 285.570312 253.238281 286.097656 252.710938 C 287.707031 251.089844 289.316406 249.46875 290.925781 247.84375 C 293.046875 245.703125 295.171875 243.5625 297.296875 241.421875 C 298.011719 240.703125 298.011719 240.703125 298.738281 239.964844 C 301.535156 237.152344 304.429688 234.507812 307.433594 231.914062 C 309.90625 229.722656 312.222656 227.375 314.542969 225.019531 C 315.054688 224.507812 315.5625 223.996094 316.089844 223.46875 C 317.699219 221.847656 319.308594 220.222656 320.917969 218.601562 C 323.039062 216.457031 325.164062 214.320312 327.289062 212.179688 C 328.003906 211.460938 328.003906 211.460938 328.730469 210.722656 C 331.050781 208.386719 333.410156 206.140625 335.902344 203.988281 C 338.980469 201.332031 341.84375 198.507812 344.699219 195.613281 C 345.226562 195.085938 345.753906 194.554688 346.296875 194.011719 C 347.960938 192.335938 349.621094 190.660156 351.285156 188.984375 C 353.476562 186.769531 355.671875 184.5625 357.867188 182.351562 C 358.359375 181.855469 358.851562 181.355469 359.355469 180.84375 C 362.195312 177.992188 365.125 175.304688 368.171875 172.675781 C 370.648438 170.484375 372.957031 168.136719 375.277344 165.785156 C 376.042969 165.019531 376.042969 165.019531 376.824219 164.234375 C 378.433594 162.613281 380.042969 160.988281 381.652344 159.367188 C 383.773438 157.222656 385.898438 155.085938 388.023438 152.945312 C 388.738281 152.222656 388.738281 152.222656 389.464844 151.488281 C 392.261719 148.675781 395.15625 146.03125 398.160156 143.4375 C 400.632812 141.246094 402.949219 138.898438 405.269531 136.542969 C 405.78125 136.03125 406.289062 135.519531 406.816406 134.992188 C 408.425781 133.371094 410.035156 131.746094 411.644531 130.125 C 413.765625 127.980469 415.890625 125.84375 418.015625 123.703125 C 418.730469 122.980469 418.730469 122.980469 419.457031 122.246094 C 422.253906 119.429688 425.148438 116.789062 428.152344 114.195312 C 430.625 112.003906 432.941406 109.65625 435.261719 107.300781 C 435.773438 106.789062 436.28125 106.277344 436.808594 105.75 C 438.417969 104.128906 440.027344 102.503906 441.636719 100.882812 C 443.757812 98.738281 445.882812 96.601562 448.007812 94.460938 C 448.722656 93.738281 448.722656 93.738281 449.449219 93.003906 C 452.246094 90.1875 455.140625 87.546875 458.144531 84.953125 C 460.617188 82.761719 462.933594 80.414062 465.253906 78.058594 C 465.765625 77.546875 466.273438 77.035156 466.800781 76.503906 C 468.410156 74.886719 470.019531 73.261719 471.628906 71.640625 C 473.75 69.496094 475.875 67.355469 478 65.21875 C 478.714844 64.496094 478.714844 64.496094 479.441406 63.761719 C 482.238281 60.945312 485.132812 58.304688 488.136719 55.710938 C 490.609375 53.519531 492.925781 51.167969 495.246094 48.816406 C 495.757812 48.304688 496.265625 47.792969 496.792969 47.261719 C 498.402344 45.644531 500.011719 44.019531 501.621094 42.398438 C 503.742188 40.253906 505.867188 38.113281 507.992188 35.976562 C 508.46875 35.496094 508.941406 35.015625 509.433594 34.519531 C 511.753906 32.183594 514.113281 29.9375 516.605469 27.785156 C 519.679688 25.132812 522.542969 22.304688 525.398438 19.417969 C 526.175781 18.632812 526.175781 18.632812 526.972656 17.832031 C 528.617188 16.179688 530.253906 14.527344 531.894531 12.875 C 534.066406 10.679688 536.246094 8.484375 538.425781 6.292969 C 539.171875 5.539062 539.171875 5.539062 539.933594 4.765625 C 540.625 4.070312 540.625 4.070312 541.332031 3.363281 C 541.734375 2.953125 542.140625 2.542969 542.558594 2.125 C 544.789062 0.0703125 546.035156 0.335938 548.859375 1.15625 Z M 548.859375 1.15625 " fill-opacity="1" fill-rule="nonzero"/></g><g clip-path="url(#70a13f5d40)"><path fill="#fbc08e" d="M 548.859375 1.15625 C 551.152344 2.222656 553.351562 3.4375 555.558594 4.671875 C 556.214844 5.035156 556.867188 5.398438 557.542969 5.773438 C 577.339844 16.921875 596.128906 30.152344 613.34375 44.976562 C 615.515625 46.832031 617.722656 48.625 619.949219 50.410156 C 622.894531 52.804688 625.617188 55.300781 628.230469 58.054688 C 629.644531 59.453125 631.09375 60.742188 632.601562 62.042969 C 636.03125 65.019531 639.242188 68.1875 642.441406 71.40625 C 643.003906 71.964844 643.566406 72.523438 644.144531 73.097656 C 644.6875 73.640625 645.226562 74.183594 645.785156 74.742188 C 646.269531 75.226562 646.753906 75.710938 647.25 76.210938 C 647.691406 76.679688 648.128906 77.152344 648.582031 77.636719 C 649.226562 78.300781 649.226562 78.300781 649.882812 78.980469 C 651.269531 81.40625 650.953125 83.285156 650.792969 86.054688 C 650.097656 105 654.484375 119.304688 661.882812 136.582031 C 664.414062 142.542969 666.648438 148.613281 668.902344 154.679688 C 670.210938 158.191406 671.539062 161.695312 672.863281 165.199219 C 673.136719 165.925781 673.410156 166.652344 673.691406 167.398438 C 677.308594 176.972656 680.941406 186.539062 684.574219 196.105469 C 689.761719 209.78125 694.941406 223.457031 700.105469 237.140625 C 704.535156 248.875 708.988281 260.597656 713.445312 272.316406 C 718.402344 285.355469 723.335938 298.40625 728.253906 311.457031 C 732.796875 323.5 737.355469 335.539062 741.933594 347.566406 C 746.828125 360.429688 751.699219 373.304688 756.554688 386.183594 C 761.457031 399.1875 766.375 412.183594 771.316406 425.171875 C 775.617188 436.484375 779.914062 447.792969 784.1875 459.113281 C 784.988281 461.230469 785.792969 463.34375 786.59375 465.457031 C 788.976562 471.734375 791.324219 478.015625 793.550781 484.351562 C 797.210938 494.714844 800.636719 503.691406 808.289062 511.773438 C 809.53125 513.339844 810.746094 514.914062 811.945312 516.507812 C 812.558594 517.308594 813.175781 518.113281 813.789062 518.914062 C 816.503906 522.453125 819.210938 525.996094 821.917969 529.539062 C 825.613281 534.375 829.320312 539.195312 833.035156 544.015625 C 837.589844 549.933594 842.132812 555.855469 846.667969 561.789062 C 849.117188 564.992188 851.570312 568.191406 854.027344 571.382812 C 856.910156 575.128906 859.78125 578.878906 862.652344 582.632812 C 866.765625 588.015625 870.890625 593.386719 875.023438 598.753906 C 877.171875 601.542969 879.324219 604.335938 881.46875 607.132812 C 882.214844 608.101562 882.957031 609.070312 883.703125 610.035156 C 884.964844 611.679688 886.226562 613.324219 887.488281 614.96875 C 887.875 615.46875 888.257812 615.96875 888.65625 616.484375 C 889.417969 617.480469 890.171875 618.480469 890.917969 619.488281 C 891.839844 620.683594 892.800781 621.851562 893.796875 622.988281 C 898.519531 628.691406 899.105469 633.078125 898.984375 640.34375 C 898.988281 641.421875 898.996094 642.5 899.003906 643.582031 C 899.023438 645.910156 899.023438 648.238281 899.015625 650.566406 C 899.007812 654.300781 899.066406 658.03125 899.140625 661.765625 C 899.167969 663.070312 899.195312 664.375 899.21875 665.679688 C 899.230469 666.335938 899.246094 666.996094 899.257812 667.675781 C 899.324219 671.140625 899.375 674.605469 899.425781 678.070312 C 899.441406 679.136719 899.441406 679.136719 899.457031 680.226562 C 899.480469 681.691406 899.5 683.15625 899.523438 684.621094 C 899.578125 688.457031 899.640625 692.292969 899.699219 696.128906 C 899.875 707.46875 900.042969 718.8125 900.214844 730.15625 C 900.347656 739.007812 900.484375 747.863281 900.621094 756.714844 C 900.679688 760.503906 900.738281 764.296875 900.792969 768.085938 C 900.921875 776.78125 901.066406 785.476562 901.234375 794.175781 C 901.265625 795.917969 901.292969 797.660156 901.324219 799.402344 C 901.375 802.519531 901.445312 805.636719 901.519531 808.757812 C 901.535156 809.644531 901.546875 810.53125 901.558594 811.445312 C 901.78125 819.3125 904.050781 825.328125 907.734375 832.175781 C 908.320312 833.34375 908.898438 834.511719 909.476562 835.683594 C 910.648438 838.054688 911.839844 840.414062 913.042969 842.769531 C 915.4375 847.484375 917.597656 852.304688 919.75 857.132812 C 920.890625 859.679688 922.046875 862.21875 923.203125 864.757812 C 923.433594 865.261719 923.664062 865.765625 923.898438 866.285156 C 926.574219 872.183594 929.269531 878.070312 931.960938 883.960938 C 932.210938 884.503906 932.460938 885.046875 932.714844 885.609375 C 933.976562 888.363281 935.234375 891.117188 936.496094 893.871094 C 938 897.160156 939.503906 900.449219 941.007812 903.742188 C 941.257812 904.285156 941.503906 904.824219 941.757812 905.382812 C 943 908.097656 944.242188 910.8125 945.480469 913.527344 C 947.828125 918.65625 950.171875 923.789062 952.523438 928.914062 C 953.632812 931.339844 954.746094 933.765625 955.855469 936.191406 C 956.386719 937.351562 956.917969 938.507812 957.445312 939.664062 C 958.183594 941.269531 958.917969 942.875 959.652344 944.476562 C 959.867188 944.949219 960.085938 945.417969 960.308594 945.90625 C 964.238281 954.5 966.007812 964.320312 962.742188 973.546875 C 960.625 977.988281 957.925781 982.070312 955.265625 986.203125 C 952.714844 990.328125 950.484375 994.621094 948.234375 998.914062 C 947.421875 1000.464844 946.605469 1002.015625 945.785156 1003.5625 C 941.070312 1012.476562 936.425781 1021.429688 931.800781 1030.394531 C 930.503906 1032.902344 929.195312 1035.402344 927.882812 1037.902344 C 916.570312 1059.527344 905.894531 1081.496094 895.746094 1103.691406 C 894.648438 1106.089844 893.542969 1108.484375 892.433594 1110.882812 C 869.199219 1161.1875 848.09375 1212.507812 828.785156 1264.445312 C 828.570312 1265.015625 828.359375 1265.582031 828.140625 1266.167969 C 827.160156 1268.808594 826.183594 1271.449219 825.21875 1274.089844 C 824.882812 1275 824.546875 1275.90625 824.203125 1276.839844 C 823.914062 1277.628906 823.628906 1278.414062 823.332031 1279.226562 C 822.535156 1281.074219 822.535156 1281.074219 821.035156 1282.574219 C 817.679688 1275.285156 815.5 1267.84375 813.539062 1260.082031 C 813.351562 1259.339844 813.164062 1258.601562 812.972656 1257.839844 C 811.292969 1250.433594 811.738281 1244.566406 814.292969 1237.394531 C 816.019531 1232.539062 817.171875 1227.671875 818.039062 1222.589844 C 818.132812 1222.050781 818.226562 1221.511719 818.324219 1220.957031 C 819.628906 1213.234375 820.328125 1205.523438 820.65625 1197.703125 C 820.699219 1196.679688 820.699219 1196.679688 820.746094 1195.640625 C 820.886719 1192.214844 821.007812 1188.789062 821.105469 1185.363281 C 821.359375 1177.738281 822.230469 1170.660156 824.101562 1163.257812 C 825.15625 1158.789062 825.421875 1154.4375 825.535156 1149.859375 C 825.558594 1149.253906 825.582031 1148.644531 825.605469 1148.019531 C 826.871094 1113.207031 806.277344 1080.171875 791.542969 1049.714844 C 790.441406 1047.441406 789.34375 1045.164062 788.25 1042.886719 C 782.695312 1031.355469 777.058594 1019.867188 771.316406 1008.425781 C 766.675781 999.179688 762.09375 989.914062 757.683594 980.554688 C 756.84375 978.765625 756 976.980469 755.152344 975.195312 C 744.296875 952.265625 744.296875 952.265625 739.863281 942.226562 C 738.730469 939.675781 737.566406 937.167969 736.285156 934.6875 C 734.699219 931.554688 733.511719 928.332031 732.371094 925.011719 C 732.171875 924.441406 731.96875 923.875 731.761719 923.289062 C 730.308594 919.125 730.308594 919.125 730.308594 917.417969 C 732.335938 916.40625 734.148438 916.417969 736.402344 916.25 C 737.222656 916.183594 738.046875 916.121094 738.890625 916.058594 C 739.523438 916.011719 740.15625 915.96875 740.808594 915.921875 C 739.089844 878.742188 739.089844 878.742188 726.0625 844.265625 C 725.066406 842.449219 724.292969 840.628906 723.5625 838.691406 C 723.066406 838.691406 722.574219 838.691406 722.0625 838.691406 C 722.078125 839.460938 722.078125 839.460938 722.097656 840.25 C 722.238281 852.441406 721.128906 864.621094 720.222656 876.773438 C 719.910156 880.945312 719.617188 885.117188 719.363281 889.296875 C 719.113281 893.371094 718.824219 897.4375 718.5 901.507812 C 718.386719 903.042969 718.289062 904.582031 718.207031 906.117188 C 717.601562 917.023438 715.136719 923.4375 707.425781 931.273438 C 705.992188 932.75 704.714844 934.328125 703.445312 935.949219 C 703.066406 936.414062 702.6875 936.875 702.300781 937.355469 C 698.910156 941.519531 695.535156 945.695312 692.1875 949.894531 C 689.609375 953.109375 687.003906 956.300781 684.40625 959.496094 C 682.199219 962.207031 680.003906 964.925781 677.824219 967.65625 C 674.796875 971.457031 671.726562 975.222656 668.660156 978.992188 C 666.453125 981.703125 664.257812 984.417969 662.078125 987.152344 C 659.050781 990.949219 655.980469 994.71875 652.914062 998.488281 C 650.707031 1001.199219 648.511719 1003.914062 646.332031 1006.648438 C 643.304688 1010.445312 640.234375 1014.210938 637.167969 1017.980469 C 634.960938 1020.691406 632.765625 1023.410156 630.585938 1026.140625 C 627.558594 1029.941406 624.488281 1033.707031 621.421875 1037.476562 C 619.21875 1040.1875 617.019531 1042.902344 614.839844 1045.636719 C 611.8125 1049.4375 608.742188 1053.203125 605.675781 1056.972656 C 603.472656 1059.683594 601.273438 1062.398438 599.09375 1065.132812 C 596.40625 1068.5 593.699219 1071.855469 590.988281 1075.207031 C 590.5625 1075.730469 590.140625 1076.253906 589.707031 1076.796875 C 589.304688 1077.292969 588.902344 1077.785156 588.488281 1078.296875 C 588.128906 1078.738281 587.773438 1079.183594 587.402344 1079.640625 C 586.355469 1080.867188 585.253906 1082.003906 584.097656 1083.125 C 584.574219 1079.511719 585.21875 1075.992188 586.023438 1072.4375 C 586.136719 1071.921875 586.253906 1071.402344 586.375 1070.871094 C 586.625 1069.757812 586.875 1068.644531 587.125 1067.53125 C 587.808594 1064.515625 588.480469 1061.496094 589.15625 1058.476562 C 589.296875 1057.851562 589.4375 1057.226562 589.582031 1056.582031 C 591.070312 1049.910156 592.503906 1043.226562 593.941406 1036.546875 C 595.769531 1028.027344 597.660156 1019.523438 599.648438 1011.039062 C 600.957031 1005.429688 602.167969 999.804688 603.347656 994.167969 C 606.492188 979.160156 609.847656 964.195312 613.207031 949.234375 C 613.972656 945.820312 614.738281 942.40625 615.503906 938.988281 C 615.652344 938.320312 615.804688 937.648438 615.960938 936.957031 C 616.261719 935.605469 616.566406 934.253906 616.867188 932.902344 C 617.324219 930.875 617.777344 928.84375 618.230469 926.816406 C 620.066406 918.632812 621.890625 910.445312 623.710938 902.257812 C 626.179688 891.132812 628.65625 880.007812 631.140625 868.882812 C 631.332031 868.015625 631.527344 867.148438 631.726562 866.257812 C 632.957031 860.734375 634.191406 855.214844 635.421875 849.695312 C 636.527344 844.742188 637.632812 839.789062 638.738281 834.835938 C 639.195312 832.792969 639.652344 830.75 640.105469 828.707031 C 640.21875 828.199219 640.335938 827.6875 640.453125 827.164062 C 641.148438 824.046875 641.84375 820.929688 642.539062 817.816406 C 645.292969 805.472656 648.046875 793.125 650.800781 780.78125 C 650.910156 780.289062 651.019531 779.792969 651.132812 779.285156 C 651.246094 778.792969 651.355469 778.300781 651.46875 777.792969 C 652.238281 774.335938 653.011719 770.878906 653.78125 767.421875 C 655.71875 758.746094 657.652344 750.074219 659.582031 741.402344 C 660.617188 736.765625 661.648438 732.128906 662.679688 727.492188 C 662.980469 726.152344 662.980469 726.152344 663.285156 724.785156 C 665.816406 713.425781 668.378906 702.074219 670.972656 690.726562 C 671.898438 686.671875 672.820312 682.617188 673.738281 678.5625 C 674.566406 674.929688 675.402344 671.296875 676.246094 667.667969 C 676.746094 665.503906 677.238281 663.335938 677.730469 661.167969 C 678.054688 659.738281 678.394531 658.308594 678.730469 656.875 C 680.359375 649.605469 680.085938 644.484375 677.515625 637.476562 C 677.328125 636.964844 677.144531 636.453125 676.953125 635.925781 C 676.554688 634.816406 676.152344 633.707031 675.746094 632.601562 C 674.617188 629.523438 673.523438 626.429688 672.425781 623.339844 C 672.191406 622.6875 671.960938 622.03125 671.722656 621.355469 C 646.152344 549.117188 626.972656 473.929688 609.6875 376.855469 C 609.542969 375.984375 609.398438 375.113281 609.25 374.21875 C 606.621094 358.277344 606.621094 358.277344 605.84375 350.257812 C 604.25 334.613281 598.769531 322.523438 591.453125 308.785156 C 589.101562 304.351562 586.90625 299.859375 584.761719 295.320312 C 581.453125 288.339844 578.046875 281.414062 574.585938 274.507812 C 574.207031 273.753906 574.207031 273.753906 573.820312 272.980469 C 572 269.351562 570.175781 265.71875 568.351562 262.089844 C 566.273438 257.953125 564.195312 253.8125 562.121094 249.671875 C 561.867188 249.167969 561.617188 248.667969 561.359375 248.152344 C 557.804688 241.054688 554.328125 233.921875 550.925781 226.753906 C 548.023438 220.644531 545.003906 214.601562 541.953125 208.570312 C 536.789062 198.347656 531.765625 188.082031 527.054688 177.644531 C 526.695312 176.851562 526.335938 176.0625 525.964844 175.246094 C 525.660156 174.566406 525.351562 173.882812 525.039062 173.179688 C 524.132812 171.402344 523.109375 169.914062 521.863281 168.363281 C 521.292969 169.632812 520.722656 170.902344 520.152344 172.171875 C 519.585938 173.4375 519.585938 173.4375 519.007812 174.726562 C 518.148438 176.632812 517.296875 178.542969 516.445312 180.453125 C 514.214844 185.464844 511.960938 190.464844 509.640625 195.441406 C 508.523438 197.835938 507.421875 200.238281 506.324219 202.640625 C 505.785156 203.804688 505.242188 204.964844 504.691406 206.125 C 501.472656 212.925781 499.175781 218.40625 500.121094 226.097656 C 500.207031 226.976562 500.207031 226.976562 500.292969 227.871094 C 500.484375 229.585938 500.738281 231.28125 501.011719 232.988281 C 501.15625 233.949219 501.15625 233.949219 501.304688 234.929688 C 501.527344 236.390625 501.75 237.851562 501.976562 239.308594 C 502.429688 242.230469 502.867188 245.152344 503.300781 248.074219 C 503.628906 250.277344 503.960938 252.480469 504.292969 254.683594 C 504.371094 255.214844 504.449219 255.746094 504.53125 256.289062 C 504.761719 257.835938 504.996094 259.378906 505.230469 260.925781 C 505.367188 261.816406 505.5 262.710938 505.640625 263.628906 C 505.796875 264.605469 505.957031 265.582031 506.117188 266.589844 C 506.207031 267.195312 506.296875 267.804688 506.390625 268.433594 C 507.296875 274.09375 509.023438 279.273438 511.003906 284.644531 C 511.507812 286.035156 511.507812 286.035156 512.019531 287.449219 C 512.921875 289.9375 513.828125 292.417969 514.738281 294.898438 C 515.691406 297.5 516.636719 300.101562 517.582031 302.707031 C 519.75 308.664062 521.929688 314.621094 524.113281 320.574219 C 524.386719 321.316406 524.660156 322.058594 524.9375 322.824219 C 526.832031 327.988281 528.734375 333.148438 530.640625 338.308594 C 534.15625 347.816406 537.648438 357.328125 541.125 366.851562 C 541.976562 369.1875 542.832031 371.527344 543.6875 373.863281 C 544.644531 376.476562 545.597656 379.089844 546.550781 381.703125 C 546.835938 382.480469 547.125 383.261719 547.417969 384.066406 C 550.964844 393.835938 552.726562 403.429688 552.839844 413.832031 C 552.859375 414.757812 552.859375 414.757812 552.878906 415.707031 C 552.871094 425.835938 549.980469 434.769531 546.046875 443.941406 C 544.980469 446.4375 543.9375 448.9375 542.890625 451.441406 C 542.3125 452.824219 541.734375 454.203125 541.15625 455.585938 C 537.710938 463.796875 534.390625 472.0625 531.066406 480.324219 C 529.589844 483.992188 528.113281 487.664062 526.632812 491.332031 C 525.519531 494.097656 524.40625 496.863281 523.289062 499.628906 C 520.238281 507.203125 517.179688 514.773438 514.121094 522.347656 C 513.148438 524.757812 512.171875 527.171875 511.199219 529.582031 C 509.902344 532.789062 508.609375 535.996094 507.3125 539.203125 C 504.367188 546.492188 501.425781 553.78125 498.480469 561.070312 C 496.839844 565.132812 495.199219 569.195312 493.558594 573.257812 C 492.902344 574.882812 492.246094 576.507812 491.589844 578.132812 C 456.164062 665.859375 456.164062 665.859375 455.179688 668.296875 C 454.523438 669.921875 453.867188 671.550781 453.207031 673.175781 C 451.578125 677.210938 449.949219 681.246094 448.320312 685.28125 C 445.242188 692.902344 442.164062 700.527344 439.085938 708.152344 C 437.632812 711.757812 436.175781 715.367188 434.71875 718.972656 C 434.027344 720.695312 433.332031 722.417969 432.636719 724.140625 C 431.675781 726.523438 430.710938 728.910156 429.75 731.296875 C 429.324219 732.347656 429.324219 732.347656 428.894531 733.421875 C 428.628906 734.078125 428.363281 734.734375 428.089844 735.410156 C 427.84375 736.023438 427.597656 736.636719 427.347656 737.265625 C 426.898438 738.347656 426.425781 739.417969 425.921875 740.472656 C 424.558594 743.335938 424.125 744.941406 425.140625 747.964844 C 425.390625 748.726562 425.644531 749.488281 425.90625 750.273438 C 426.222656 751.144531 426.542969 752.015625 426.871094 752.917969 C 427.136719 753.652344 427.136719 753.652344 427.410156 754.402344 C 427.800781 755.480469 428.195312 756.554688 428.585938 757.632812 C 429.238281 759.40625 429.882812 761.179688 430.527344 762.953125 C 431.230469 764.894531 431.933594 766.832031 432.640625 768.769531 C 436.0625 778.183594 439.449219 787.609375 442.835938 797.035156 C 443.417969 798.652344 444 800.265625 444.578125 801.878906 C 445.023438 803.113281 445.023438 803.113281 445.476562 804.375 C 447.394531 809.710938 449.324219 815.046875 451.253906 820.378906 C 452.851562 824.789062 454.445312 829.199219 456.035156 833.613281 C 457.011719 836.316406 457.992188 839.023438 458.972656 841.730469 C 459.898438 844.277344 460.820312 846.832031 461.742188 849.382812 C 462.246094 850.777344 462.753906 852.171875 463.257812 853.566406 C 463.5625 854.40625 463.863281 855.246094 464.175781 856.113281 C 464.4375 856.84375 464.703125 857.574219 464.976562 858.324219 C 465.65625 860.519531 466.054688 862.660156 466.378906 864.933594 C 459.339844 870.445312 452.144531 875.714844 444.878906 880.925781 C 442.0625 882.949219 439.246094 884.976562 436.433594 887.003906 C 435.882812 887.402344 435.328125 887.800781 434.761719 888.214844 C 430.597656 891.222656 426.457031 894.261719 422.328125 897.316406 C 417.441406 900.925781 412.523438 904.492188 407.570312 908.015625 C 399.148438 914.007812 390.796875 920.101562 382.484375 926.242188 C 375.6875 931.253906 368.835938 936.183594 361.984375 941.117188 C 355.644531 945.683594 349.320312 950.269531 343.035156 954.910156 C 335.648438 960.367188 328.199219 965.742188 320.746094 971.109375 C 314.402344 975.675781 308.082031 980.261719 301.796875 984.902344 C 295.515625 989.542969 289.191406 994.128906 282.851562 998.691406 C 280.042969 1000.714844 277.234375 1002.746094 274.429688 1004.773438 C 271.066406 1007.203125 267.699219 1009.632812 264.332031 1012.054688 C 263.214844 1012.863281 262.097656 1013.667969 260.980469 1014.472656 C 260.160156 1015.0625 260.160156 1015.0625 259.320312 1015.667969 C 256.292969 1017.855469 253.277344 1020.0625 250.273438 1022.289062 C 249.628906 1022.765625 248.980469 1023.246094 248.316406 1023.738281 C 247.070312 1024.664062 245.824219 1025.59375 244.582031 1026.523438 C 244.015625 1026.941406 243.453125 1027.359375 242.871094 1027.789062 C 242.128906 1028.34375 242.128906 1028.34375 241.371094 1028.910156 C 239.941406 1029.886719 238.503906 1030.65625 236.9375 1031.390625 C 236.277344 1030.820312 235.613281 1030.246094 234.933594 1029.660156 C 230.761719 1026.070312 226.589844 1022.488281 222.316406 1019.019531 C 218.265625 1015.726562 214.308594 1012.332031 210.351562 1008.929688 C 207.835938 1006.765625 205.308594 1004.617188 202.777344 1002.476562 C 202.375 1002.140625 201.976562 1001.800781 201.566406 1001.453125 C 200.761719 1000.773438 199.957031 1000.097656 199.15625 999.417969 C 197.128906 997.703125 195.101562 995.988281 193.074219 994.273438 C 192.261719 993.585938 191.449219 992.898438 190.636719 992.214844 C 157.335938 964.03125 124.03125 935.851562 90.726562 907.671875 C 92.175781 904.113281 94.945312 901.476562 97.503906 898.683594 C 105.355469 889.816406 109.410156 880.644531 112.964844 869.496094 C 114.21875 865.574219 115.523438 861.671875 116.824219 857.765625 C 117.21875 856.582031 117.21875 856.582031 117.621094 855.375 C 128.167969 823.804688 141.867188 793.285156 155.820312 763.101562 C 156.195312 762.285156 156.574219 761.464844 156.960938 760.625 C 161.90625 749.988281 167.269531 739.554688 172.644531 729.125 C 172.917969 728.589844 173.195312 728.054688 173.480469 727.5 C 177.882812 718.957031 182.378906 710.46875 187.042969 702.0625 C 188.308594 699.78125 189.570312 697.492188 190.832031 695.207031 C 200.238281 678.183594 209.859375 661.285156 219.808594 644.574219 C 221.097656 642.402344 222.378906 640.234375 223.664062 638.058594 C 229.667969 627.894531 235.703125 617.75 241.90625 607.703125 C 242.398438 606.902344 242.890625 606.105469 243.398438 605.28125 C 245.449219 601.949219 247.507812 598.625 249.625 595.335938 C 249.945312 594.835938 250.261719 594.332031 250.589844 593.816406 C 251.378906 592.566406 252.179688 591.324219 252.984375 590.085938 C 255.972656 583.664062 256.199219 575.832031 257.128906 568.871094 C 257.265625 567.839844 257.40625 566.808594 257.546875 565.777344 C 257.925781 562.960938 258.300781 560.140625 258.679688 557.324219 C 259.085938 554.292969 259.492188 551.261719 259.902344 548.230469 C 260.707031 542.230469 261.511719 536.230469 262.316406 530.230469 C 263.007812 525.074219 263.699219 519.921875 264.390625 514.765625 C 266.898438 496.082031 266.898438 496.082031 269.398438 477.398438 C 269.707031 475.101562 270.015625 472.804688 270.320312 470.507812 C 270.523438 469.003906 270.722656 467.496094 270.925781 465.992188 C 272.15625 456.773438 273.398438 447.554688 274.65625 438.339844 C 275.089844 435.164062 275.519531 431.992188 275.949219 428.816406 C 276.269531 426.4375 276.59375 424.058594 276.921875 421.679688 C 277.273438 419.144531 277.617188 416.605469 277.957031 414.070312 C 278.058594 413.355469 278.160156 412.640625 278.261719 411.90625 C 279.4375 403.066406 279.269531 397.242188 274.269531 389.683594 C 259.941406 371.144531 231.636719 362.746094 210.628906 354.855469 C 208.320312 353.988281 206.011719 353.117188 203.707031 352.246094 C 199.542969 350.675781 195.371094 349.117188 191.199219 347.566406 C 191.199219 344.65625 192.382812 343.871094 194.363281 341.882812 C 195.046875 341.210938 195.046875 341.210938 195.746094 340.527344 C 196.214844 340.058594 196.683594 339.59375 197.164062 339.113281 C 198.160156 338.121094 199.160156 337.132812 200.160156 336.148438 C 201.675781 334.65625 203.183594 333.15625 204.6875 331.65625 C 205.660156 330.691406 206.628906 329.726562 207.601562 328.765625 C 208.046875 328.324219 208.492188 327.882812 208.949219 327.425781 C 211.214844 325.199219 213.519531 323.050781 215.925781 320.972656 C 218.945312 318.359375 221.761719 315.589844 224.566406 312.75 C 225.078125 312.234375 225.585938 311.722656 226.113281 311.195312 C 227.722656 309.574219 229.332031 307.953125 230.941406 306.328125 C 233.0625 304.1875 235.1875 302.046875 237.3125 299.90625 C 237.789062 299.425781 238.261719 298.945312 238.753906 298.449219 C 241.550781 295.636719 244.445312 292.996094 247.449219 290.402344 C 249.921875 288.207031 252.238281 285.859375 254.558594 283.507812 C 255.070312 282.992188 255.578125 282.480469 256.105469 281.953125 C 257.714844 280.332031 259.324219 278.710938 260.933594 277.085938 C 263.054688 274.945312 265.179688 272.804688 267.304688 270.664062 C 267.78125 270.183594 268.253906 269.703125 268.746094 269.207031 C 271.542969 266.394531 274.4375 263.75 277.441406 261.160156 C 279.914062 258.964844 282.230469 256.617188 284.550781 254.265625 C 285.0625 253.75 285.570312 253.238281 286.097656 252.710938 C 287.707031 251.089844 289.316406 249.46875 290.925781 247.84375 C 293.046875 245.703125 295.171875 243.5625 297.296875 241.421875 C 298.011719 240.703125 298.011719 240.703125 298.738281 239.964844 C 301.535156 237.152344 304.429688 234.507812 307.433594 231.914062 C 309.90625 229.722656 312.222656 227.375 314.542969 225.019531 C 315.054688 224.507812 315.5625 223.996094 316.089844 223.46875 C 317.699219 221.847656 319.308594 220.222656 320.917969 218.601562 C 323.039062 216.457031 325.164062 214.320312 327.289062 212.179688 C 328.003906 211.460938 328.003906 211.460938 328.730469 210.722656 C 331.050781 208.386719 333.410156 206.140625 335.902344 203.988281 C 338.980469 201.332031 341.84375 198.507812 344.699219 195.613281 C 345.226562 195.085938 345.753906 194.554688 346.296875 194.011719 C 347.960938 192.335938 349.621094 190.660156 351.285156 188.984375 C 353.476562 186.769531 355.671875 184.5625 357.867188 182.351562 C 358.359375 181.855469 358.851562 181.355469 359.355469 180.84375 C 362.195312 177.992188 365.125 175.304688 368.171875 172.675781 C 370.648438 170.484375 372.957031 168.136719 375.277344 165.785156 C 376.042969 165.019531 376.042969 165.019531 376.824219 164.234375 C 378.433594 162.613281 380.042969 160.988281 381.652344 159.367188 C 383.773438 157.222656 385.898438 155.085938 388.023438 152.945312 C 388.5 152.464844 388.972656 151.984375 389.464844 151.488281 C 392.261719 148.675781 395.15625 146.03125 398.160156 143.4375 C 400.632812 141.246094 402.949219 138.898438 405.269531 136.542969 C 406.035156 135.773438 406.035156 135.773438 406.816406 134.992188 C 408.425781 133.371094 410.035156 131.746094 411.644531 130.125 C 413.765625 127.980469 415.890625 125.84375 418.015625 123.703125 C 418.492188 123.222656 418.964844 122.742188 419.457031 122.246094 C 422.253906 119.429688 425.148438 116.789062 428.152344 114.195312 C 430.625 112.003906 432.941406 109.65625 435.261719 107.300781 C 436.027344 106.53125 436.027344 106.53125 436.808594 105.75 C 438.417969 104.128906 440.027344 102.503906 441.636719 100.882812 C 443.757812 98.738281 445.882812 96.601562 448.007812 94.460938 C 448.484375 93.980469 448.957031 93.5 449.449219 93.003906 C 452.246094 90.1875 455.140625 87.546875 458.144531 84.953125 C 460.617188 82.761719 462.933594 80.414062 465.253906 78.058594 C 465.765625 77.546875 466.273438 77.035156 466.800781 76.503906 C 468.410156 74.886719 470.019531 73.261719 471.628906 71.640625 C 473.75 69.496094 475.875 67.355469 478 65.21875 C 478.714844 64.496094 478.714844 64.496094 479.441406 63.761719 C 482.238281 60.945312 485.132812 58.304688 488.136719 55.710938 C 490.609375 53.519531 492.925781 51.167969 495.246094 48.816406 C 495.757812 48.304688 496.265625 47.792969 496.792969 47.261719 C 498.402344 45.644531 500.011719 44.019531 501.621094 42.398438 C 503.742188 40.253906 505.867188 38.113281 507.992188 35.976562 C 508.46875 35.496094 508.941406 35.015625 509.433594 34.519531 C 511.753906 32.183594 514.113281 29.9375 516.605469 27.785156 C 519.679688 25.132812 522.542969 22.304688 525.398438 19.417969 C 526.175781 18.632812 526.175781 18.632812 526.972656 17.832031 C 528.617188 16.179688 530.253906 14.527344 531.894531 12.875 C 534.066406 10.679688 536.246094 8.484375 538.425781 6.292969 C 539.171875 5.539062 539.171875 5.539062 539.933594 4.765625 C 540.625 4.070312 540.625 4.070312 541.332031 3.363281 C 541.734375 2.953125 542.140625 2.542969 542.558594 2.125 C 544.789062 0.0703125 546.035156 0.335938 548.859375 1.15625 Z M 548.859375 1.15625 " fill-opacity="1" fill-rule="nonzero"/></g><path fill="#fbc08e" d="M 498.621094 218.601562 C 498.867188 218.601562 499.117188 218.601562 499.371094 218.601562 C 499.453125 219.542969 499.535156 220.488281 499.621094 221.460938 C 499.738281 222.757812 499.859375 224.054688 499.980469 225.347656 C 500.03125 225.964844 500.085938 226.578125 500.140625 227.210938 C 500.53125 231.332031 501.183594 235.351562 501.992188 239.410156 C 502.757812 243.273438 503.292969 247.042969 503.554688 250.984375 C 505.34375 274.003906 514.46875 295.183594 522.597656 316.570312 C 524.109375 320.550781 525.589844 324.546875 527.054688 328.550781 C 527.371094 329.414062 527.371094 329.414062 527.695312 330.296875 C 528.101562 331.410156 528.507812 332.523438 528.914062 333.632812 C 529.898438 336.324219 530.894531 339.007812 531.890625 341.695312 C 534.988281 350.070312 538.0625 358.457031 541.121094 366.847656 C 541.976562 369.1875 542.832031 371.527344 543.6875 373.863281 C 544.644531 376.476562 545.597656 379.089844 546.550781 381.703125 C 546.835938 382.480469 547.125 383.261719 547.417969 384.066406 C 550.964844 393.835938 552.726562 403.429688 552.839844 413.832031 C 552.859375 414.757812 552.859375 414.757812 552.878906 415.707031 C 552.871094 425.835938 549.980469 434.769531 546.046875 443.945312 C 544.980469 446.4375 543.9375 448.9375 542.890625 451.441406 C 542.3125 452.824219 541.734375 454.203125 541.15625 455.585938 C 537.710938 463.796875 534.390625 472.0625 531.066406 480.324219 C 529.589844 483.992188 528.113281 487.664062 526.632812 491.332031 C 525.519531 494.097656 524.40625 496.863281 523.289062 499.628906 C 520.238281 507.203125 517.179688 514.773438 514.121094 522.347656 C 513.148438 524.757812 512.171875 527.171875 511.199219 529.582031 C 509.902344 532.789062 508.609375 535.996094 507.3125 539.203125 C 504.367188 546.492188 501.425781 553.78125 498.480469 561.070312 C 496.839844 565.132812 495.199219 569.195312 493.558594 573.257812 C 492.902344 574.882812 492.246094 576.507812 491.589844 578.132812 C 456.164062 665.859375 456.164062 665.859375 455.179688 668.296875 C 454.523438 669.921875 453.867188 671.550781 453.207031 673.175781 C 451.578125 677.210938 449.949219 681.246094 448.320312 685.28125 C 445.242188 692.902344 442.164062 700.527344 439.085938 708.152344 C 437.632812 711.757812 436.175781 715.367188 434.71875 718.972656 C 434.027344 720.695312 433.332031 722.417969 432.636719 724.140625 C 431.675781 726.523438 430.710938 728.910156 429.75 731.296875 C 429.324219 732.347656 429.324219 732.347656 428.894531 733.421875 C 428.628906 734.078125 428.363281 734.734375 428.089844 735.410156 C 427.84375 736.023438 427.597656 736.636719 427.347656 737.265625 C 426.898438 738.347656 426.425781 739.417969 425.921875 740.472656 C 424.558594 743.335938 424.125 744.941406 425.140625 747.964844 C 425.390625 748.726562 425.644531 749.488281 425.90625 750.273438 C 426.222656 751.144531 426.542969 752.015625 426.871094 752.917969 C 427.136719 753.652344 427.136719 753.652344 427.410156 754.402344 C 427.800781 755.480469 428.195312 756.554688 428.585938 757.632812 C 429.238281 759.40625 429.882812 761.179688 430.527344 762.953125 C 431.230469 764.894531 431.933594 766.832031 432.640625 768.769531 C 436.0625 778.183594 439.449219 787.609375 442.835938 797.035156 C 443.417969 798.652344 444 800.265625 444.578125 801.878906 C 445.023438 803.113281 445.023438 803.113281 445.476562 804.375 C 447.394531 809.710938 449.324219 815.046875 451.253906 820.378906 C 452.851562 824.789062 454.445312 829.199219 456.035156 833.613281 C 457.011719 836.316406 457.992188 839.023438 458.972656 841.730469 C 459.898438 844.277344 460.820312 846.832031 461.742188 849.382812 C 462.246094 850.777344 462.753906 852.171875 463.257812 853.566406 C 463.5625 854.40625 463.863281 855.246094 464.175781 856.113281 C 464.570312 857.207031 464.570312 857.207031 464.976562 858.324219 C 465.65625 860.519531 466.054688 862.660156 466.378906 864.933594 C 459.339844 870.445312 452.144531 875.714844 444.878906 880.925781 C 442.0625 882.949219 439.246094 884.976562 436.433594 887.003906 C 435.882812 887.402344 435.328125 887.800781 434.761719 888.214844 C 430.597656 891.222656 426.457031 894.261719 422.328125 897.316406 C 417.441406 900.925781 412.523438 904.492188 407.570312 908.015625 C 399.148438 914.007812 390.796875 920.101562 382.484375 926.242188 C 375.6875 931.253906 368.835938 936.183594 361.984375 941.117188 C 355.644531 945.683594 349.320312 950.269531 343.035156 954.910156 C 335.648438 960.367188 328.199219 965.742188 320.746094 971.109375 C 314.402344 975.675781 308.082031 980.261719 301.796875 984.902344 C 295.515625 989.542969 289.191406 994.128906 282.851562 998.691406 C 280.042969 1000.714844 277.234375 1002.746094 274.429688 1004.773438 C 271.066406 1007.203125 267.699219 1009.632812 264.332031 1012.054688 C 263.214844 1012.863281 262.097656 1013.667969 260.980469 1014.472656 C 260.160156 1015.0625 260.160156 1015.0625 259.320312 1015.667969 C 256.292969 1017.855469 253.277344 1020.0625 250.273438 1022.289062 C 249.628906 1022.765625 248.980469 1023.246094 248.316406 1023.738281 C 247.070312 1024.664062 245.824219 1025.59375 244.582031 1026.523438 C 244.015625 1026.941406 243.453125 1027.359375 242.871094 1027.789062 C 242.128906 1028.34375 242.128906 1028.34375 241.371094 1028.910156 C 239.941406 1029.886719 238.503906 1030.65625 236.9375 1031.390625 C 236.277344 1030.820312 235.613281 1030.246094 234.933594 1029.660156 C 230.761719 1026.070312 226.589844 1022.488281 222.316406 1019.019531 C 218.265625 1015.726562 214.308594 1012.332031 210.351562 1008.929688 C 207.835938 1006.765625 205.308594 1004.617188 202.777344 1002.476562 C 202.375 1002.140625 201.976562 1001.800781 201.566406 1001.453125 C 200.761719 1000.773438 199.957031 1000.097656 199.15625 999.417969 C 197.128906 997.703125 195.101562 995.988281 193.074219 994.273438 C 192.261719 993.585938 191.449219 992.898438 190.636719 992.214844 C 157.335938 964.03125 124.03125 935.851562 90.726562 907.671875 C 91.984375 904.582031 94.203125 902.339844 96.398438 899.894531 C 103.101562 892.195312 108.066406 884.847656 110.84375 874.960938 C 111.722656 872.429688 111.722656 872.429688 113.089844 870.394531 C 115.402344 866.898438 116.835938 863.132812 118.421875 859.261719 C 119.152344 857.515625 119.886719 855.769531 120.621094 854.027344 C 122.097656 850.515625 122.097656 850.515625 123.566406 847 C 132.605469 825.328125 132.605469 825.328125 140.964844 816.945312 C 142.492188 815.21875 143.976562 813.457031 145.460938 811.695312 C 146.21875 810.8125 146.976562 809.929688 147.730469 809.050781 C 148.289062 808.398438 148.289062 808.398438 148.855469 807.738281 C 149.578125 806.894531 150.304688 806.050781 151.027344 805.207031 C 156.347656 799.003906 161.476562 792.679688 166.457031 786.203125 C 166.878906 785.660156 167.300781 785.117188 167.734375 784.554688 C 194.960938 749.324219 215.996094 708.792969 234.6875 668.484375 C 235.144531 667.511719 235.597656 666.535156 236.050781 665.5625 C 243.808594 648.90625 251.273438 632.128906 258.617188 615.285156 C 262.144531 607.210938 265.722656 599.15625 269.363281 591.128906 C 284.941406 556.550781 288.457031 518.53125 288.894531 480.988281 C 288.90625 480.035156 288.90625 480.035156 288.917969 479.058594 C 288.992188 472.558594 289.050781 466.0625 289.070312 459.5625 C 289.078125 457.085938 289.09375 454.609375 289.113281 452.132812 C 289.117188 450.980469 289.117188 449.824219 289.117188 448.671875 C 289.097656 440.484375 290.03125 432.816406 291.675781 424.796875 C 291.804688 424.136719 291.933594 423.476562 292.066406 422.792969 C 295.109375 407.578125 301.433594 394.199219 311.167969 382.058594 C 311.574219 381.527344 311.980469 381 312.398438 380.453125 C 318.964844 372.3125 327.664062 367.074219 336.992188 362.71875 C 360.007812 351.886719 381.757812 339.175781 401.894531 323.574219 C 402.300781 323.261719 402.703125 322.953125 403.121094 322.632812 C 412.738281 315.234375 421.886719 307.355469 430.78125 299.101562 C 431.910156 298.058594 433.046875 297.027344 434.183594 295.996094 C 440.457031 290.304688 446.597656 284.519531 452.105469 278.074219 C 453.742188 276.210938 455.429688 274.402344 457.128906 272.59375 C 461.679688 267.75 465.976562 262.785156 470.128906 257.589844 C 470.863281 256.699219 471.601562 255.804688 472.339844 254.914062 C 487.011719 237.777344 487.011719 237.777344 498.621094 218.601562 Z M 498.621094 218.601562 " fill-opacity="1" fill-rule="nonzero"/><g clip-path="url(#511a4b78d0)"><path fill="#f8a55d" d="M 548.859375 1.15625 C 551.152344 2.222656 553.351562 3.4375 555.558594 4.671875 C 556.214844 5.035156 556.867188 5.398438 557.542969 5.773438 C 577.339844 16.921875 596.128906 30.152344 613.34375 44.976562 C 615.515625 46.832031 617.722656 48.625 619.949219 50.410156 C 622.894531 52.804688 625.617188 55.300781 628.230469 58.054688 C 629.644531 59.453125 631.09375 60.742188 632.601562 62.042969 C 636.03125 65.019531 639.242188 68.1875 642.441406 71.40625 C 643.003906 71.964844 643.566406 72.523438 644.144531 73.097656 C 644.6875 73.640625 645.226562 74.183594 645.785156 74.742188 C 646.269531 75.226562 646.753906 75.710938 647.25 76.210938 C 647.691406 76.679688 648.128906 77.152344 648.582031 77.636719 C 649.003906 78.058594 649.425781 78.480469 649.859375 78.914062 C 651.335938 81.53125 651.175781 84.183594 651.1875 87.109375 C 651.199219 87.734375 651.210938 88.359375 651.222656 89.003906 C 651.257812 90.992188 651.28125 92.984375 651.300781 94.976562 C 651.328125 96.972656 651.359375 98.96875 651.390625 100.96875 C 651.414062 102.207031 651.429688 103.449219 651.4375 104.691406 C 651.40625 107.757812 651.40625 107.757812 652.332031 110.628906 C 652.542969 112.3125 652.722656 114 652.894531 115.691406 C 653.683594 123.019531 654.9375 130.265625 656.191406 137.527344 C 659.261719 155.445312 660.84375 173.191406 660.773438 191.375 C 660.765625 193.855469 660.773438 196.335938 660.785156 198.820312 C 660.792969 212.570312 660.335938 226.4375 657.4375 239.921875 C 657.28125 240.6875 657.121094 241.453125 656.957031 242.238281 C 653.914062 256.355469 650.019531 270.554688 643.015625 283.25 C 639.675781 289.703125 638.425781 296.46875 637.148438 303.5625 C 637.023438 304.234375 636.898438 304.90625 636.765625 305.597656 C 631.339844 334.777344 630 364.636719 634.335938 394.054688 C 634.515625 395.363281 634.699219 396.675781 634.878906 397.984375 C 636.484375 409.117188 638.984375 419.945312 642.160156 430.730469 C 644.300781 438.09375 646.109375 445.539062 647.949219 452.984375 C 650.277344 462.402344 650.277344 462.402344 652.847656 471.753906 C 654.585938 477.796875 655.96875 483.910156 657.359375 490.039062 C 658.40625 494.664062 659.507812 499.269531 660.691406 503.859375 C 665.136719 521.085938 668.546875 538.585938 671.984375 556.035156 C 672.753906 559.953125 673.554688 563.859375 674.394531 567.761719 C 675.589844 573.332031 676.730469 578.914062 677.824219 584.507812 C 677.925781 585.027344 678.027344 585.550781 678.132812 586.085938 C 680.65625 599.027344 682.601562 611.8125 682.8125 625.007812 C 682.835938 626.246094 682.863281 627.484375 682.890625 628.722656 C 683.21875 645.753906 683.242188 662.789062 683.253906 679.820312 C 683.257812 683.707031 683.265625 687.589844 683.285156 691.476562 C 683.519531 747.199219 683.519531 747.199219 677.824219 768.207031 C 677.617188 768.988281 677.617188 768.988281 677.410156 769.78125 C 675.617188 776.429688 673.191406 782.40625 669.917969 788.460938 C 662.929688 802.824219 670.109375 824.976562 673.855469 839.417969 C 675.265625 844.851562 676.503906 850.300781 677.636719 855.796875 C 677.785156 856.515625 677.933594 857.234375 678.085938 857.976562 C 678.507812 860.042969 678.917969 862.113281 679.324219 864.183594 C 679.53125 865.222656 679.53125 865.222656 679.746094 866.277344 C 683.265625 884.402344 678.746094 900.171875 669.578125 915.921875 C 667.960938 918.308594 666.21875 920.496094 664.328125 922.667969 C 664.011719 923.089844 663.695312 923.511719 663.371094 923.949219 C 658.964844 929.667969 652.527344 933.761719 646.796875 938.070312 C 626.796875 953.164062 615.101562 971.941406 605.09375 994.648438 C 604.597656 994.648438 604.101562 994.648438 603.59375 994.648438 C 604.796875 986.441406 606.652344 978.390625 608.472656 970.304688 C 608.808594 968.800781 609.144531 967.300781 609.484375 965.796875 C 610.367188 961.84375 611.257812 957.886719 612.144531 953.933594 C 613.027344 950.007812 613.90625 946.082031 614.789062 942.15625 C 615.828125 937.523438 616.863281 932.890625 617.90625 928.257812 C 619.871094 919.503906 621.828125 910.746094 623.769531 901.988281 C 626.21875 890.953125 628.679688 879.917969 631.140625 868.882812 C 631.332031 868.015625 631.527344 867.148438 631.726562 866.253906 C 632.957031 860.734375 634.191406 855.214844 635.421875 849.695312 C 636.527344 844.742188 637.632812 839.789062 638.738281 834.835938 C 639.195312 832.792969 639.652344 830.75 640.105469 828.707031 C 640.21875 828.199219 640.335938 827.6875 640.453125 827.164062 C 641.148438 824.046875 641.84375 820.929688 642.539062 817.816406 C 645.292969 805.472656 648.046875 793.125 650.800781 780.78125 C 650.910156 780.289062 651.019531 779.792969 651.132812 779.285156 C 651.246094 778.792969 651.355469 778.300781 651.46875 777.792969 C 652.238281 774.335938 653.011719 770.878906 653.78125 767.421875 C 655.71875 758.746094 657.652344 750.074219 659.582031 741.402344 C 660.617188 736.765625 661.648438 732.128906 662.679688 727.492188 C 662.980469 726.152344 662.980469 726.152344 663.285156 724.785156 C 665.816406 713.425781 668.378906 702.074219 670.972656 690.726562 C 671.898438 686.671875 672.820312 682.617188 673.738281 678.5625 C 674.566406 674.929688 675.402344 671.296875 676.246094 667.667969 C 676.746094 665.503906 677.238281 663.335938 677.730469 661.167969 C 678.054688 659.738281 678.394531 658.308594 678.730469 656.875 C 680.359375 649.605469 680.085938 644.484375 677.515625 637.476562 C 677.328125 636.964844 677.144531 636.453125 676.953125 635.925781 C 676.554688 634.816406 676.152344 633.707031 675.746094 632.601562 C 674.617188 629.523438 673.523438 626.429688 672.425781 623.339844 C 672.191406 622.6875 671.960938 622.03125 671.722656 621.355469 C 646.152344 549.117188 626.972656 473.929688 609.6875 376.855469 C 609.542969 375.984375 609.398438 375.113281 609.25 374.21875 C 606.621094 358.277344 606.621094 358.277344 605.84375 350.257812 C 604.25 334.613281 598.769531 322.523438 591.453125 308.785156 C 589.101562 304.351562 586.90625 299.859375 584.761719 295.320312 C 581.453125 288.339844 578.046875 281.414062 574.585938 274.507812 C 574.207031 273.753906 574.207031 273.753906 573.820312 272.980469 C 572 269.351562 570.175781 265.71875 568.351562 262.089844 C 566.273438 257.953125 564.195312 253.8125 562.121094 249.671875 C 561.867188 249.167969 561.617188 248.667969 561.359375 248.152344 C 557.804688 241.054688 554.328125 233.921875 550.925781 226.753906 C 548.023438 220.644531 545.003906 214.601562 541.953125 208.570312 C 536.789062 198.347656 531.765625 188.082031 527.054688 177.644531 C 526.695312 176.851562 526.335938 176.0625 525.964844 175.246094 C 525.660156 174.566406 525.351562 173.882812 525.039062 173.179688 C 524.132812 171.402344 523.109375 169.914062 521.863281 168.363281 C 520.703125 170.949219 519.542969 173.53125 518.382812 176.117188 C 517.953125 177.074219 517.523438 178.03125 517.09375 178.984375 C 514.363281 185.074219 511.644531 191.167969 508.957031 197.273438 C 508.160156 199.074219 507.367188 200.878906 506.570312 202.679688 C 506.054688 203.847656 505.542969 205.015625 505.03125 206.179688 C 501.066406 215.238281 497.085938 223.890625 490.886719 231.675781 C 490.023438 232.78125 489.160156 233.890625 488.296875 234.996094 C 487.878906 235.527344 487.464844 236.058594 487.035156 236.605469 C 485.488281 238.589844 483.992188 240.613281 482.5 242.640625 C 478.296875 248.261719 473.847656 253.679688 469.378906 259.089844 C 469.015625 259.527344 468.65625 259.96875 468.28125 260.417969 C 463.460938 266.238281 458.433594 271.839844 453.273438 277.359375 C 452.125 278.59375 450.988281 279.832031 449.855469 281.074219 C 443.691406 287.820312 437.460938 294.492188 430.5 300.429688 C 428.863281 301.851562 427.273438 303.3125 425.6875 304.789062 C 421.152344 308.992188 416.484375 312.972656 411.644531 316.824219 C 411.257812 317.132812 410.875 317.441406 410.480469 317.761719 C 386.683594 336.890625 360.871094 352.007812 333.433594 365.261719 C 332.644531 365.648438 331.855469 366.03125 331.042969 366.429688 C 330.34375 366.769531 329.644531 367.109375 328.921875 367.457031 C 325.40625 369.394531 322.449219 371.953125 319.417969 374.5625 C 318.964844 374.902344 318.515625 375.246094 318.050781 375.601562 C 304.742188 385.929688 297.15625 404.621094 293.175781 420.296875 C 293.019531 420.890625 292.867188 421.480469 292.710938 422.089844 C 290.617188 430.804688 289.957031 439.503906 289.945312 448.433594 C 289.941406 450.203125 289.933594 451.96875 289.917969 453.738281 C 289.898438 456.257812 289.882812 458.777344 289.871094 461.296875 C 289.59375 510.011719 287.183594 557.105469 265.359375 601.652344 C 262.632812 607.234375 260.148438 612.914062 257.699219 618.621094 C 243.207031 652.316406 228.261719 686.3125 210.257812 718.304688 C 209.113281 720.367188 208.007812 722.441406 206.90625 724.523438 C 193.148438 750.464844 177.019531 775.339844 157.785156 797.578125 C 156.042969 799.601562 154.355469 801.65625 152.679688 803.730469 C 149.574219 807.546875 146.363281 811.261719 143.113281 814.957031 C 141.886719 816.359375 140.675781 817.777344 139.464844 819.195312 C 138.980469 819.734375 138.5 820.277344 138.003906 820.835938 C 133.675781 825.898438 131.015625 831.40625 128.402344 837.472656 C 127.957031 838.488281 127.507812 839.5 127.058594 840.515625 C 124.773438 845.691406 122.554688 850.894531 120.34375 856.101562 C 120.136719 856.585938 119.929688 857.074219 119.714844 857.578125 C 118.722656 859.910156 117.738281 862.242188 116.769531 864.582031 C 116.246094 865.820312 116.246094 865.820312 115.714844 867.082031 C 115.414062 867.8125 115.113281 868.539062 114.800781 869.289062 C 113.96875 870.933594 113.96875 870.933594 112.472656 871.683594 C 114.199219 864.726562 116.539062 858.023438 118.984375 851.296875 C 119.195312 850.71875 119.402344 850.140625 119.617188 849.542969 C 135.328125 806.261719 153.992188 763.546875 175.863281 723.007812 C 177.21875 720.476562 178.558594 717.933594 179.898438 715.390625 C 185.824219 704.152344 191.847656 692.980469 198.171875 681.960938 C 199.578125 679.503906 200.976562 677.046875 202.375 674.585938 C 208.09375 664.527344 213.886719 654.515625 219.808594 644.574219 C 221.097656 642.402344 222.378906 640.234375 223.664062 638.058594 C 229.667969 627.894531 235.703125 617.75 241.90625 607.703125 C 242.398438 606.902344 242.890625 606.105469 243.398438 605.28125 C 245.449219 601.949219 247.507812 598.625 249.625 595.335938 C 249.945312 594.835938 250.261719 594.332031 250.589844 593.816406 C 251.378906 592.566406 252.179688 591.324219 252.984375 590.085938 C 255.972656 583.664062 256.199219 575.832031 257.128906 568.871094 C 257.265625 567.839844 257.40625 566.808594 257.546875 565.777344 C 257.925781 562.960938 258.300781 560.140625 258.679688 557.324219 C 259.085938 554.292969 259.492188 551.261719 259.902344 548.230469 C 260.707031 542.230469 261.511719 536.230469 262.316406 530.230469 C 263.007812 525.074219 263.699219 519.921875 264.390625 514.765625 C 266.898438 496.082031 266.898438 496.082031 269.398438 477.398438 C 269.707031 475.101562 270.015625 472.804688 270.320312 470.507812 C 270.523438 469.003906 270.722656 467.496094 270.925781 465.992188 C 272.15625 456.773438 273.398438 447.554688 274.65625 438.339844 C 275.089844 435.164062 275.519531 431.992188 275.949219 428.816406 C 276.269531 426.4375 276.59375 424.058594 276.921875 421.679688 C 277.273438 419.144531 277.617188 416.605469 277.957031 414.070312 C 278.058594 413.355469 278.160156 412.640625 278.261719 411.90625 C 279.4375 403.066406 279.269531 397.242188 274.269531 389.683594 C 259.941406 371.144531 231.636719 362.746094 210.628906 354.855469 C 208.320312 353.988281 206.011719 353.117188 203.707031 352.246094 C 199.542969 350.675781 195.371094 349.117188 191.199219 347.566406 C 191.199219 344.65625 192.382812 343.871094 194.363281 341.882812 C 194.820312 341.433594 195.277344 340.988281 195.746094 340.527344 C 196.449219 339.824219 196.449219 339.824219 197.164062 339.113281 C 198.160156 338.121094 199.160156 337.132812 200.160156 336.148438 C 201.675781 334.65625 203.183594 333.15625 204.6875 331.65625 C 205.660156 330.691406 206.628906 329.726562 207.601562 328.765625 C 208.046875 328.324219 208.492188 327.882812 208.949219 327.425781 C 211.214844 325.199219 213.519531 323.050781 215.925781 320.972656 C 218.945312 318.359375 221.761719 315.589844 224.566406 312.75 C 225.078125 312.234375 225.585938 311.722656 226.113281 311.195312 C 227.722656 309.574219 229.332031 307.953125 230.941406 306.328125 C 233.0625 304.1875 235.1875 302.046875 237.3125 299.90625 C 237.789062 299.425781 238.261719 298.945312 238.753906 298.449219 C 241.550781 295.636719 244.445312 292.996094 247.449219 290.402344 C 249.921875 288.207031 252.238281 285.859375 254.558594 283.507812 C 255.070312 282.992188 255.578125 282.480469 256.105469 281.953125 C 257.714844 280.332031 259.324219 278.710938 260.933594 277.085938 C 263.054688 274.945312 265.179688 272.804688 267.304688 270.664062 C 267.78125 270.183594 268.253906 269.703125 268.746094 269.207031 C 271.542969 266.394531 274.4375 263.75 277.441406 261.160156 C 279.914062 258.964844 282.230469 256.617188 284.550781 254.265625 C 285.0625 253.75 285.570312 253.238281 286.097656 252.710938 C 287.707031 251.089844 289.316406 249.46875 290.925781 247.84375 C 293.046875 245.703125 295.171875 243.5625 297.296875 241.421875 C 297.773438 240.941406 298.246094 240.460938 298.738281 239.964844 C 301.535156 237.152344 304.429688 234.507812 307.433594 231.914062 C 309.90625 229.722656 312.222656 227.375 314.542969 225.019531 C 315.054688 224.507812 315.5625 223.996094 316.089844 223.46875 C 317.699219 221.847656 319.308594 220.222656 320.917969 218.601562 C 323.039062 216.457031 325.164062 214.320312 327.289062 212.179688 C 328.003906 211.460938 328.003906 211.460938 328.730469 210.722656 C 331.050781 208.386719 333.410156 206.140625 335.902344 203.988281 C 338.980469 201.332031 341.84375 198.507812 344.699219 195.613281 C 345.226562 195.085938 345.753906 194.554688 346.296875 194.011719 C 347.960938 192.335938 349.621094 190.660156 351.285156 188.984375 C 353.476562 186.769531 355.671875 184.5625 357.867188 182.351562 C 358.359375 181.855469 358.851562 181.355469 359.355469 180.84375 C 362.195312 177.992188 365.125 175.304688 368.171875 172.675781 C 370.648438 170.484375 372.957031 168.136719 375.277344 165.785156 C 376.042969 165.019531 376.042969 165.019531 376.824219 164.234375 C 378.433594 162.613281 380.042969 160.988281 381.652344 159.367188 C 383.773438 157.222656 385.898438 155.085938 388.023438 152.945312 C 388.5 152.464844 388.972656 151.984375 389.464844 151.488281 C 392.261719 148.675781 395.15625 146.03125 398.160156 143.4375 C 400.632812 141.246094 402.949219 138.898438 405.269531 136.542969 C 406.035156 135.773438 406.035156 135.773438 406.816406 134.992188 C 408.425781 133.371094 410.035156 131.746094 411.644531 130.125 C 413.765625 127.980469 415.890625 125.84375 418.015625 123.703125 C 418.492188 123.222656 418.964844 122.742188 419.457031 122.246094 C 422.253906 119.429688 425.148438 116.789062 428.152344 114.195312 C 430.625 112.003906 432.941406 109.65625 435.261719 107.300781 C 436.027344 106.53125 436.027344 106.53125 436.808594 105.75 C 438.417969 104.128906 440.027344 102.503906 441.636719 100.882812 C 443.757812 98.738281 445.882812 96.601562 448.007812 94.460938 C 448.484375 93.980469 448.957031 93.5 449.449219 93.003906 C 452.246094 90.1875 455.140625 87.546875 458.144531 84.953125 C 460.617188 82.761719 462.933594 80.414062 465.253906 78.058594 C 465.765625 77.546875 466.273438 77.035156 466.800781 76.503906 C 468.410156 74.886719 470.019531 73.261719 471.628906 71.640625 C 473.75 69.496094 475.875 67.355469 478 65.21875 C 478.476562 64.738281 478.949219 64.257812 479.441406 63.761719 C 482.238281 60.945312 485.132812 58.304688 488.136719 55.710938 C 490.609375 53.519531 492.925781 51.167969 495.246094 48.816406 C 496.011719 48.046875 496.011719 48.046875 496.792969 47.261719 C 498.402344 45.644531 500.011719 44.019531 501.621094 42.398438 C 503.742188 40.253906 505.867188 38.113281 507.992188 35.976562 C 508.46875 35.496094 508.941406 35.015625 509.433594 34.519531 C 511.753906 32.183594 514.113281 29.9375 516.605469 27.785156 C 519.679688 25.132812 522.542969 22.304688 525.398438 19.417969 C 526.175781 18.632812 526.175781 18.632812 526.972656 17.832031 C 528.617188 16.179688 530.253906 14.527344 531.894531 12.875 C 534.066406 10.679688 536.246094 8.484375 538.425781 6.292969 C 539.171875 5.539062 539.171875 5.539062 539.933594 4.765625 C 540.625 4.070312 540.625 4.070312 541.332031 3.363281 C 541.734375 2.953125 542.140625 2.542969 542.558594 2.125 C 544.789062 0.0703125 546.035156 0.335938 548.859375 1.15625 Z M 548.859375 1.15625 " fill-opacity="1" fill-rule="nonzero"/></g><path fill="#e6a167" d="M 117.71875 858.183594 C 118.214844 858.433594 118.710938 858.679688 119.21875 858.933594 C 118.382812 860.921875 117.539062 862.90625 116.6875 864.886719 C 116.449219 865.453125 116.214844 866.019531 115.96875 866.601562 C 114.140625 870.847656 114.140625 870.847656 112.472656 871.683594 C 115.234375 860.671875 115.234375 860.671875 117.71875 858.183594 Z M 117.71875 858.183594 " fill-opacity="1" fill-rule="nonzero"/></svg>